<svg viewBox="0 0 256 194" xmlns="http://www.w3.org/2000/svg" preserveAspectRatio="xMidYMid"><defs><linearGradient x1=".0039%" y1="49.9976%" x2="100.0322%" y2="49.9976%" id="a"><stop stop-opacity=".1" offset="0%"/><stop stop-opacity=".2" offset="100%"/></linearGradient></defs><path d="M238.834 193.595H16.1541c-8.6345 0-15.9057-7.044-15.9057-15.9057V16.8146C.2485 8.18 7.2925.9089 16.1542.9089H238.834c8.6345 0 15.9057 7.044 15.9057 15.9057v160.8747c0 8.8618-7.044 15.9057-15.9057 15.9057z" fill="#E3E3E3"/><path d="M32.06 193.595l95.2068-76.5745.6817-4.09-98.1608-70.6668-.2273 147.923 2.4995 3.4083z" opacity=".1" fill="#231F20"/><path d="M16.1542 193.595c-8.8617 0-15.9057-7.044-15.9057-15.9057V16.5873c0-8.8617 7.044-10.4522 15.9057-10.4522 8.8618 0 15.9057 1.8177 15.9057 10.4523V193.595H16.1542z" fill="#D54B3D"/><path d="M16.1542 8.4073c11.3612 0 13.6335 3.4084 13.6335 8.18v174.7355H16.1542c-7.4984 0-13.6334-6.135-13.6334-13.6335V16.5873c0-4.9989 2.2722-8.18 13.6334-8.18zm0-2.2722C7.2925 6.135.2485 7.9528.2485 16.5874v161.102c0 8.8617 7.044 15.9056 15.9057 15.9056H32.06V16.5874c0-8.8618-7.044-10.4523-15.9057-10.4523z" fill="#D72B27"/><path d="M238.834 193.595h-15.9058V16.133c0-8.8618 7.044-9.998 15.9057-9.998 8.8618 0 15.9057 1.1362 15.9057 9.998v161.7835c0 8.6346-7.044 15.6785-15.9057 15.6785z" fill="#D54B3D"/><path d="M238.834 8.4073c10.225 0 13.6334 2.045 13.6334 7.7256v161.7836c0 7.4984-6.135 13.6335-13.6335 13.6335h-13.6334V16.133c0-5.908 3.4083-7.7257 13.6334-7.7257zm0-2.2722c-8.8618 0-15.9058 1.136-15.9058 9.9978v177.6893h15.9057c8.8618 0 15.9057-7.044 15.9057-15.9057V16.133c0-8.8617-7.044-9.9978-15.9057-9.9978z" fill="#D72B27"/><path d="M170.6667 193.595L1.5798 23.1948l8.8938 3.6177 117.7021 84.7546 126.564-92.8066v159.156c0 8.6346-7.044 15.6785-15.9058 15.6785h-68.1672z" fill="url(#a)"/><path d="M127.2668 117.0205L7.0653 29.7664c-7.044-5.2262-9.089-15.224-3.8629-22.268C8.4286.4544 18.6537-1.1361 25.925 4.09L127.494 77.938 229.745 3.1811c7.0439-5.2261 17.0418-3.6355 22.268 3.6356 5.226 7.044 3.6355 17.0418-3.6357 22.268l-121.1105 87.9358z" fill="#D54B3D"/><path d="M238.834 2.2722c4.3172 0 8.4072 2.045 11.134 5.6806 4.3172 6.1351 2.9538 14.5424-2.954 19.0869l-119.7472 87.254L8.4286 27.9487C2.2936 23.404.703 14.7696 5.0202 8.8617c2.4995-3.4083 6.8168-5.6806 11.3612-5.6806 2.954 0 5.9079.909 8.1801 2.7267l101.342 73.6207 1.3633.9089 1.3634-.909L230.6539 4.7718c2.4994-1.5906 5.2261-2.4995 8.18-2.4995zm0-2.2722c-3.1812 0-6.5896.9089-9.3163 2.954L127.2668 77.7106 25.6976 3.8628C22.971 1.8178 19.5626.909 16.1542.909c-4.999 0-9.9978 2.2722-13.179 6.5895-4.999 7.044-2.9539 17.0418 4.09 22.268l120.2016 87.4813 120.8833-88.163c7.044-5.2262 8.6345-14.9968 3.6356-22.268C248.6046 2.2722 243.8329 0 238.8339 0z" fill="#D72B27"/></svg>