<svg xmlns="http://www.w3.org/2000/svg" width="192" height="192"><g fill="none" fill-rule="evenodd"><path fill="#5181B8" d="M66.56 0h58.88C179.2 0 192 12.8 192 66.56v58.88c0 53.76-12.8 66.56-66.56 66.56H66.56C12.8 192 0 179.2 0 125.44V66.56C0 12.8 12.8 0 66.56 0z"/><path fill="#FFF" d="M157.234 66.1462c.8896-2.9664 0-5.1462-4.2338-5.1462h-14c-3.5597 0-5.2008 1.883-6.0908 3.9594 0 0-7.1195 17.3535-17.2052 28.6258-3.263 3.263-4.7463 4.3012-6.5262 4.3012-.8898 0-2.178-1.0382-2.178-4.0044V66.1462C107 62.5865 105.967 61 103.0002 61h-22c-2.2245 0-3.5623 1.6522-3.5623 3.218 0 3.3745 5.0426 4.1527 5.5623 13.6454v20.6165c0 4.5201-.8163 5.3396-2.5961 5.3396-4.7461 0-16.291-17.431-23.138-37.3768C55.924 62.566 54.5782 61 51.0001 61h-14c-4 0-4.8 1.883-4.8 3.9594 0 3.7081 4.7463 22.0999 22.0996 46.4242C65.8686 127.9953 82.1682 137 97.0002 137c8.8991 0 10-2 10-5.445V119c0-4 .843-4.7983 3.6612-4.7983 2.0763 0 5.636 1.0382 13.9421 9.0475C134.096 132.7416 135.661 137 141.0002 137h14c4 0 6-2 4.8463-5.9469-1.2626-3.9337-5.7947-9.641-11.8084-16.4065-3.2632-3.8562-8.1576-8.009-9.641-10.086-2.0764-2.6693-1.4831-3.8562 0-6.229 0 0 17.057-24.028 18.8369-32.1854z"/></g></svg>